<mxfile host="app.diagrams.net" modified="2023-08-30T16:42:47.121Z" agent="Mozilla/5.0 (Windows NT 10.0; Win64; x64) AppleWebKit/537.36 (KHTML, like Gecko) Chrome/116.0.0.0 Safari/537.36" version="21.7.1" etag="FKugKDk9reAWLS8xJp5g" type="github">
  <diagram name="Page-1" id="Rv3ZvS_VC_WPTpFy0SUu">
    <mxGraphModel>
      <root>
        <mxCell id="0" />
        <mxCell id="1" parent="0" />
      </root>
    </mxGraphModel>
  </diagram>
</mxfile>
